<?xml version="1.0" encoding="UTF-8"?>
<svg xmlns="http://www.w3.org/2000/svg" xmlns:xlink="http://www.w3.org/1999/xlink" width="3873" height="3872.9" viewBox="0 0 3873 3872.9">
<defs>
<clipPath id="clip-0">

</clipPath>
<clipPath id="clip-1">
<path clip-rule="evenodd" d="M 756.398438 0 L 3116.5 0 C 3534.300781 0 3873 338.699219 3873 756.398438 L 3873 3116.5 C 3873 3534.300781 3534.300781 3872.898438 3116.601562 3872.898438 L 756.398438 3872.898438 C 338.699219 3873 0 3534.300781 0 3116.5 L 0 756.398438 C 0 338.699219 338.699219 0 756.398438 0 "/>
</clipPath>
<linearGradient id="linear-pattern-0" gradientUnits="userSpaceOnUse" x1="-0.194443" y1="0" x2="1.19443" y2="0" gradientTransform="matrix(2788.55, 2788.56, -2788.56, 2788.55, 542.221, 542.21)">
<stop offset="0" stop-color="rgb(31.764221%, 77.253723%, 83.135986%)" stop-opacity="1"/>
<stop offset="0.125" stop-color="rgb(31.764221%, 77.253723%, 83.135986%)" stop-opacity="1"/>
<stop offset="0.140625" stop-color="rgb(31.752014%, 77.244568%, 83.120728%)" stop-opacity="1"/>
<stop offset="0.144531" stop-color="rgb(31.596375%, 77.113342%, 82.907104%)" stop-opacity="1"/>
<stop offset="0.148438" stop-color="rgb(31.451416%, 76.992798%, 82.70874%)" stop-opacity="1"/>
<stop offset="0.152344" stop-color="rgb(31.306458%, 76.870728%, 82.510376%)" stop-opacity="1"/>
<stop offset="0.15625" stop-color="rgb(31.161499%, 76.750183%, 82.313538%)" stop-opacity="1"/>
<stop offset="0.160156" stop-color="rgb(31.016541%, 76.628113%, 82.115173%)" stop-opacity="1"/>
<stop offset="0.164062" stop-color="rgb(30.873108%, 76.507568%, 81.918335%)" stop-opacity="1"/>
<stop offset="0.167969" stop-color="rgb(30.728149%, 76.385498%, 81.719971%)" stop-opacity="1"/>
<stop offset="0.171875" stop-color="rgb(30.583191%, 76.264954%, 81.521606%)" stop-opacity="1"/>
<stop offset="0.175781" stop-color="rgb(30.438232%, 76.142883%, 81.323242%)" stop-opacity="1"/>
<stop offset="0.179688" stop-color="rgb(30.2948%, 76.022339%, 81.126404%)" stop-opacity="1"/>
<stop offset="0.183594" stop-color="rgb(30.149841%, 75.900269%, 80.92804%)" stop-opacity="1"/>
<stop offset="0.1875" stop-color="rgb(30.004883%, 75.779724%, 80.731201%)" stop-opacity="1"/>
<stop offset="0.191406" stop-color="rgb(29.859924%, 75.657654%, 80.532837%)" stop-opacity="1"/>
<stop offset="0.195312" stop-color="rgb(29.714966%, 75.537109%, 80.334473%)" stop-opacity="1"/>
<stop offset="0.199219" stop-color="rgb(29.570007%, 75.415039%, 80.136108%)" stop-opacity="1"/>
<stop offset="0.203125" stop-color="rgb(29.426575%, 75.294495%, 79.93927%)" stop-opacity="1"/>
<stop offset="0.207031" stop-color="rgb(29.281616%, 75.172424%, 79.740906%)" stop-opacity="1"/>
<stop offset="0.210938" stop-color="rgb(29.136658%, 75.05188%, 79.544067%)" stop-opacity="1"/>
<stop offset="0.214844" stop-color="rgb(28.991699%, 74.92981%, 79.345703%)" stop-opacity="1"/>
<stop offset="0.21875" stop-color="rgb(28.846741%, 74.809265%, 79.147339%)" stop-opacity="1"/>
<stop offset="0.222656" stop-color="rgb(28.701782%, 74.687195%, 78.948975%)" stop-opacity="1"/>
<stop offset="0.226563" stop-color="rgb(28.55835%, 74.56665%, 78.752136%)" stop-opacity="1"/>
<stop offset="0.230469" stop-color="rgb(28.413391%, 74.44458%, 78.553772%)" stop-opacity="1"/>
<stop offset="0.234375" stop-color="rgb(28.268433%, 74.324036%, 78.356934%)" stop-opacity="1"/>
<stop offset="0.238281" stop-color="rgb(28.123474%, 74.201965%, 78.158569%)" stop-opacity="1"/>
<stop offset="0.242188" stop-color="rgb(27.980042%, 74.081421%, 77.960205%)" stop-opacity="1"/>
<stop offset="0.246094" stop-color="rgb(27.835083%, 73.959351%, 77.761841%)" stop-opacity="1"/>
<stop offset="0.25" stop-color="rgb(27.690125%, 73.838806%, 77.565002%)" stop-opacity="1"/>
<stop offset="0.253906" stop-color="rgb(27.545166%, 73.716736%, 77.366638%)" stop-opacity="1"/>
<stop offset="0.257812" stop-color="rgb(27.400208%, 73.596191%, 77.168274%)" stop-opacity="1"/>
<stop offset="0.261719" stop-color="rgb(27.255249%, 73.474121%, 76.96991%)" stop-opacity="1"/>
<stop offset="0.265625" stop-color="rgb(27.111816%, 73.353577%, 76.773071%)" stop-opacity="1"/>
<stop offset="0.269531" stop-color="rgb(26.966858%, 73.231506%, 76.574707%)" stop-opacity="1"/>
<stop offset="0.273438" stop-color="rgb(26.821899%, 73.110962%, 76.377869%)" stop-opacity="1"/>
<stop offset="0.277344" stop-color="rgb(26.676941%, 72.988892%, 76.179504%)" stop-opacity="1"/>
<stop offset="0.28125" stop-color="rgb(26.531982%, 72.868347%, 75.98114%)" stop-opacity="1"/>
<stop offset="0.285156" stop-color="rgb(26.387024%, 72.746277%, 75.782776%)" stop-opacity="1"/>
<stop offset="0.289063" stop-color="rgb(26.243591%, 72.625732%, 75.585938%)" stop-opacity="1"/>
<stop offset="0.292969" stop-color="rgb(26.098633%, 72.505188%, 75.387573%)" stop-opacity="1"/>
<stop offset="0.296875" stop-color="rgb(25.953674%, 72.384644%, 75.190735%)" stop-opacity="1"/>
<stop offset="0.300781" stop-color="rgb(25.808716%, 72.262573%, 74.992371%)" stop-opacity="1"/>
<stop offset="0.304688" stop-color="rgb(25.663757%, 72.142029%, 74.794006%)" stop-opacity="1"/>
<stop offset="0.308594" stop-color="rgb(25.518799%, 72.019958%, 74.595642%)" stop-opacity="1"/>
<stop offset="0.3125" stop-color="rgb(25.375366%, 71.899414%, 74.398804%)" stop-opacity="1"/>
<stop offset="0.316406" stop-color="rgb(25.230408%, 71.777344%, 74.200439%)" stop-opacity="1"/>
<stop offset="0.320312" stop-color="rgb(25.085449%, 71.656799%, 74.003601%)" stop-opacity="1"/>
<stop offset="0.324219" stop-color="rgb(24.940491%, 71.534729%, 73.805237%)" stop-opacity="1"/>
<stop offset="0.328125" stop-color="rgb(24.797058%, 71.414185%, 73.606873%)" stop-opacity="1"/>
<stop offset="0.332031" stop-color="rgb(24.6521%, 71.292114%, 73.408508%)" stop-opacity="1"/>
<stop offset="0.335938" stop-color="rgb(24.507141%, 71.17157%, 73.21167%)" stop-opacity="1"/>
<stop offset="0.339844" stop-color="rgb(24.362183%, 71.0495%, 73.013306%)" stop-opacity="1"/>
<stop offset="0.34375" stop-color="rgb(24.217224%, 70.928955%, 72.816467%)" stop-opacity="1"/>
<stop offset="0.347656" stop-color="rgb(24.072266%, 70.806885%, 72.618103%)" stop-opacity="1"/>
<stop offset="0.351562" stop-color="rgb(23.928833%, 70.68634%, 72.419739%)" stop-opacity="1"/>
<stop offset="0.355469" stop-color="rgb(23.783875%, 70.56427%, 72.221375%)" stop-opacity="1"/>
<stop offset="0.359375" stop-color="rgb(23.638916%, 70.443726%, 72.024536%)" stop-opacity="1"/>
<stop offset="0.363281" stop-color="rgb(23.493958%, 70.321655%, 71.826172%)" stop-opacity="1"/>
<stop offset="0.367187" stop-color="rgb(23.348999%, 70.201111%, 71.629333%)" stop-opacity="1"/>
<stop offset="0.371094" stop-color="rgb(23.204041%, 70.079041%, 71.430969%)" stop-opacity="1"/>
<stop offset="0.375" stop-color="rgb(23.060608%, 69.958496%, 71.232605%)" stop-opacity="1"/>
<stop offset="0.378906" stop-color="rgb(22.915649%, 69.836426%, 71.034241%)" stop-opacity="1"/>
<stop offset="0.382813" stop-color="rgb(22.770691%, 69.715881%, 70.837402%)" stop-opacity="1"/>
<stop offset="0.386719" stop-color="rgb(22.625732%, 69.593811%, 70.639038%)" stop-opacity="1"/>
<stop offset="0.390625" stop-color="rgb(22.4823%, 69.473267%, 70.4422%)" stop-opacity="1"/>
<stop offset="0.394531" stop-color="rgb(22.337341%, 69.351196%, 70.243835%)" stop-opacity="1"/>
<stop offset="0.398438" stop-color="rgb(22.192383%, 69.230652%, 70.045471%)" stop-opacity="1"/>
<stop offset="0.402344" stop-color="rgb(22.047424%, 69.108582%, 69.847107%)" stop-opacity="1"/>
<stop offset="0.40625" stop-color="rgb(21.902466%, 68.988037%, 69.650269%)" stop-opacity="1"/>
<stop offset="0.410156" stop-color="rgb(21.757507%, 68.865967%, 69.451904%)" stop-opacity="1"/>
<stop offset="0.414062" stop-color="rgb(21.614075%, 68.745422%, 69.255066%)" stop-opacity="1"/>
<stop offset="0.417969" stop-color="rgb(21.469116%, 68.623352%, 69.056702%)" stop-opacity="1"/>
<stop offset="0.421875" stop-color="rgb(21.324158%, 68.502808%, 68.858337%)" stop-opacity="1"/>
<stop offset="0.425781" stop-color="rgb(21.179199%, 68.380737%, 68.659973%)" stop-opacity="1"/>
<stop offset="0.429688" stop-color="rgb(21.034241%, 68.260193%, 68.463135%)" stop-opacity="1"/>
<stop offset="0.433594" stop-color="rgb(20.889282%, 68.138123%, 68.264771%)" stop-opacity="1"/>
<stop offset="0.4375" stop-color="rgb(20.74585%, 68.017578%, 68.067932%)" stop-opacity="1"/>
<stop offset="0.441406" stop-color="rgb(20.600891%, 67.895508%, 67.869568%)" stop-opacity="1"/>
<stop offset="0.445312" stop-color="rgb(20.455933%, 67.774963%, 67.671204%)" stop-opacity="1"/>
<stop offset="0.449219" stop-color="rgb(20.310974%, 67.652893%, 67.472839%)" stop-opacity="1"/>
<stop offset="0.453125" stop-color="rgb(20.167542%, 67.532349%, 67.276001%)" stop-opacity="1"/>
<stop offset="0.457031" stop-color="rgb(20.022583%, 67.411804%, 67.077637%)" stop-opacity="1"/>
<stop offset="0.460937" stop-color="rgb(19.877625%, 67.29126%, 66.880798%)" stop-opacity="1"/>
<stop offset="0.464844" stop-color="rgb(19.732666%, 67.169189%, 66.682434%)" stop-opacity="1"/>
<stop offset="0.46875" stop-color="rgb(19.587708%, 67.048645%, 66.48407%)" stop-opacity="1"/>
<stop offset="0.472656" stop-color="rgb(19.442749%, 66.926575%, 66.285706%)" stop-opacity="1"/>
<stop offset="0.476562" stop-color="rgb(19.299316%, 66.80603%, 66.088867%)" stop-opacity="1"/>
<stop offset="0.480469" stop-color="rgb(19.154358%, 66.68396%, 65.890503%)" stop-opacity="1"/>
<stop offset="0.484375" stop-color="rgb(19.009399%, 66.563416%, 65.693665%)" stop-opacity="1"/>
<stop offset="0.488281" stop-color="rgb(18.864441%, 66.441345%, 65.4953%)" stop-opacity="1"/>
<stop offset="0.492188" stop-color="rgb(18.719482%, 66.320801%, 65.296936%)" stop-opacity="1"/>
<stop offset="0.496094" stop-color="rgb(18.574524%, 66.19873%, 65.098572%)" stop-opacity="1"/>
<stop offset="0.5" stop-color="rgb(18.431091%, 66.078186%, 64.901733%)" stop-opacity="1"/>
<stop offset="0.503906" stop-color="rgb(18.286133%, 65.956116%, 64.703369%)" stop-opacity="1"/>
<stop offset="0.507812" stop-color="rgb(18.141174%, 65.835571%, 64.505005%)" stop-opacity="1"/>
<stop offset="0.511719" stop-color="rgb(17.996216%, 65.713501%, 64.306641%)" stop-opacity="1"/>
<stop offset="0.515625" stop-color="rgb(17.852783%, 65.592957%, 64.109802%)" stop-opacity="1"/>
<stop offset="0.519531" stop-color="rgb(17.707825%, 65.470886%, 63.911438%)" stop-opacity="1"/>
<stop offset="0.523438" stop-color="rgb(17.562866%, 65.350342%, 63.7146%)" stop-opacity="1"/>
<stop offset="0.527344" stop-color="rgb(17.417908%, 65.228271%, 63.516235%)" stop-opacity="1"/>
<stop offset="0.53125" stop-color="rgb(17.272949%, 65.107727%, 63.317871%)" stop-opacity="1"/>
<stop offset="0.535156" stop-color="rgb(17.127991%, 64.985657%, 63.119507%)" stop-opacity="1"/>
<stop offset="0.539062" stop-color="rgb(16.984558%, 64.865112%, 62.922668%)" stop-opacity="1"/>
<stop offset="0.542969" stop-color="rgb(16.8396%, 64.743042%, 62.724304%)" stop-opacity="1"/>
<stop offset="0.546875" stop-color="rgb(16.694641%, 64.622498%, 62.527466%)" stop-opacity="1"/>
<stop offset="0.550781" stop-color="rgb(16.549683%, 64.500427%, 62.329102%)" stop-opacity="1"/>
<stop offset="0.554688" stop-color="rgb(16.404724%, 64.379883%, 62.130737%)" stop-opacity="1"/>
<stop offset="0.558594" stop-color="rgb(16.259766%, 64.257812%, 61.932373%)" stop-opacity="1"/>
<stop offset="0.5625" stop-color="rgb(16.116333%, 64.137268%, 61.735535%)" stop-opacity="1"/>
<stop offset="0.566406" stop-color="rgb(15.971375%, 64.015198%, 61.53717%)" stop-opacity="1"/>
<stop offset="0.570313" stop-color="rgb(15.826416%, 63.894653%, 61.340332%)" stop-opacity="1"/>
<stop offset="0.574219" stop-color="rgb(15.681458%, 63.772583%, 61.141968%)" stop-opacity="1"/>
<stop offset="0.578125" stop-color="rgb(15.538025%, 63.652039%, 60.943604%)" stop-opacity="1"/>
<stop offset="0.582031" stop-color="rgb(15.393066%, 63.529968%, 60.745239%)" stop-opacity="1"/>
<stop offset="0.585938" stop-color="rgb(15.248108%, 63.409424%, 60.548401%)" stop-opacity="1"/>
<stop offset="0.589844" stop-color="rgb(15.103149%, 63.287354%, 60.350037%)" stop-opacity="1"/>
<stop offset="0.59375" stop-color="rgb(14.958191%, 63.166809%, 60.153198%)" stop-opacity="1"/>
<stop offset="0.597656" stop-color="rgb(14.813232%, 63.044739%, 59.954834%)" stop-opacity="1"/>
<stop offset="0.601563" stop-color="rgb(14.6698%, 62.924194%, 59.75647%)" stop-opacity="1"/>
<stop offset="0.605469" stop-color="rgb(14.524841%, 62.802124%, 59.558105%)" stop-opacity="1"/>
<stop offset="0.609375" stop-color="rgb(14.379883%, 62.68158%, 59.361267%)" stop-opacity="1"/>
<stop offset="0.613281" stop-color="rgb(14.234924%, 62.559509%, 59.162903%)" stop-opacity="1"/>
<stop offset="0.617188" stop-color="rgb(14.089966%, 62.438965%, 58.966064%)" stop-opacity="1"/>
<stop offset="0.621094" stop-color="rgb(13.945007%, 62.31842%, 58.7677%)" stop-opacity="1"/>
<stop offset="0.625" stop-color="rgb(13.801575%, 62.197876%, 58.569336%)" stop-opacity="1"/>
<stop offset="0.628906" stop-color="rgb(13.656616%, 62.075806%, 58.370972%)" stop-opacity="1"/>
<stop offset="0.632812" stop-color="rgb(13.511658%, 61.955261%, 58.174133%)" stop-opacity="1"/>
<stop offset="0.636719" stop-color="rgb(13.366699%, 61.833191%, 57.975769%)" stop-opacity="1"/>
<stop offset="0.640625" stop-color="rgb(13.223267%, 61.712646%, 57.778931%)" stop-opacity="1"/>
<stop offset="0.644531" stop-color="rgb(13.078308%, 61.590576%, 57.580566%)" stop-opacity="1"/>
<stop offset="0.648438" stop-color="rgb(12.93335%, 61.470032%, 57.382202%)" stop-opacity="1"/>
<stop offset="0.652344" stop-color="rgb(12.788391%, 61.347961%, 57.183838%)" stop-opacity="1"/>
<stop offset="0.65625" stop-color="rgb(12.643433%, 61.227417%, 56.987%)" stop-opacity="1"/>
<stop offset="0.660156" stop-color="rgb(12.498474%, 61.105347%, 56.788635%)" stop-opacity="1"/>
<stop offset="0.664062" stop-color="rgb(12.355042%, 60.984802%, 56.591797%)" stop-opacity="1"/>
<stop offset="0.667969" stop-color="rgb(12.210083%, 60.862732%, 56.393433%)" stop-opacity="1"/>
<stop offset="0.671875" stop-color="rgb(12.065125%, 60.742188%, 56.195068%)" stop-opacity="1"/>
<stop offset="0.675781" stop-color="rgb(11.920166%, 60.620117%, 55.996704%)" stop-opacity="1"/>
<stop offset="0.679688" stop-color="rgb(11.775208%, 60.499573%, 55.799866%)" stop-opacity="1"/>
<stop offset="0.683594" stop-color="rgb(11.630249%, 60.377502%, 55.601501%)" stop-opacity="1"/>
<stop offset="0.6875" stop-color="rgb(11.486816%, 60.256958%, 55.404663%)" stop-opacity="1"/>
<stop offset="0.691406" stop-color="rgb(11.341858%, 60.134888%, 55.206299%)" stop-opacity="1"/>
<stop offset="0.695312" stop-color="rgb(11.196899%, 60.014343%, 55.007935%)" stop-opacity="1"/>
<stop offset="0.699219" stop-color="rgb(11.051941%, 59.892273%, 54.80957%)" stop-opacity="1"/>
<stop offset="0.703125" stop-color="rgb(10.906982%, 59.771729%, 54.612732%)" stop-opacity="1"/>
<stop offset="0.707031" stop-color="rgb(10.762024%, 59.649658%, 54.414368%)" stop-opacity="1"/>
<stop offset="0.710938" stop-color="rgb(10.618591%, 59.529114%, 54.217529%)" stop-opacity="1"/>
<stop offset="0.714844" stop-color="rgb(10.473633%, 59.407043%, 54.019165%)" stop-opacity="1"/>
<stop offset="0.71875" stop-color="rgb(10.328674%, 59.286499%, 53.820801%)" stop-opacity="1"/>
<stop offset="0.722656" stop-color="rgb(10.183716%, 59.164429%, 53.622437%)" stop-opacity="1"/>
<stop offset="0.726562" stop-color="rgb(10.040283%, 59.043884%, 53.425598%)" stop-opacity="1"/>
<stop offset="0.730469" stop-color="rgb(9.895325%, 58.921814%, 53.227234%)" stop-opacity="1"/>
<stop offset="0.734375" stop-color="rgb(9.750366%, 58.80127%, 53.030396%)" stop-opacity="1"/>
<stop offset="0.738281" stop-color="rgb(9.605408%, 58.679199%, 52.832031%)" stop-opacity="1"/>
<stop offset="0.742187" stop-color="rgb(9.460449%, 58.558655%, 52.633667%)" stop-opacity="1"/>
<stop offset="0.746094" stop-color="rgb(9.315491%, 58.436584%, 52.435303%)" stop-opacity="1"/>
<stop offset="0.75" stop-color="rgb(9.172058%, 58.31604%, 52.238464%)" stop-opacity="1"/>
<stop offset="0.753906" stop-color="rgb(9.0271%, 58.19397%, 52.0401%)" stop-opacity="1"/>
<stop offset="0.757813" stop-color="rgb(8.882141%, 58.073425%, 51.841736%)" stop-opacity="1"/>
<stop offset="0.761719" stop-color="rgb(8.737183%, 57.951355%, 51.643372%)" stop-opacity="1"/>
<stop offset="0.765625" stop-color="rgb(8.592224%, 57.830811%, 51.446533%)" stop-opacity="1"/>
<stop offset="0.769531" stop-color="rgb(8.447266%, 57.70874%, 51.248169%)" stop-opacity="1"/>
<stop offset="0.773438" stop-color="rgb(8.303833%, 57.588196%, 51.051331%)" stop-opacity="1"/>
<stop offset="0.777344" stop-color="rgb(8.158875%, 57.466125%, 50.852966%)" stop-opacity="1"/>
<stop offset="0.78125" stop-color="rgb(8.013916%, 57.345581%, 50.654602%)" stop-opacity="1"/>
<stop offset="0.785156" stop-color="rgb(7.868958%, 57.225037%, 50.456238%)" stop-opacity="1"/>
<stop offset="0.789062" stop-color="rgb(7.725525%, 57.104492%, 50.259399%)" stop-opacity="1"/>
<stop offset="0.792969" stop-color="rgb(7.580566%, 56.982422%, 50.061035%)" stop-opacity="1"/>
<stop offset="0.796875" stop-color="rgb(7.435608%, 56.861877%, 49.864197%)" stop-opacity="1"/>
<stop offset="0.800781" stop-color="rgb(7.290649%, 56.739807%, 49.665833%)" stop-opacity="1"/>
<stop offset="0.804688" stop-color="rgb(7.145691%, 56.619263%, 49.467468%)" stop-opacity="1"/>
<stop offset="0.808594" stop-color="rgb(7.000732%, 56.497192%, 49.269104%)" stop-opacity="1"/>
<stop offset="0.8125" stop-color="rgb(6.8573%, 56.376648%, 49.072266%)" stop-opacity="1"/>
<stop offset="0.816406" stop-color="rgb(6.712341%, 56.254578%, 48.873901%)" stop-opacity="1"/>
<stop offset="0.820312" stop-color="rgb(6.567383%, 56.134033%, 48.677063%)" stop-opacity="1"/>
<stop offset="0.824219" stop-color="rgb(6.422424%, 56.011963%, 48.478699%)" stop-opacity="1"/>
<stop offset="0.828125" stop-color="rgb(6.277466%, 55.891418%, 48.280334%)" stop-opacity="1"/>
<stop offset="0.832031" stop-color="rgb(6.132507%, 55.769348%, 48.08197%)" stop-opacity="1"/>
<stop offset="0.835938" stop-color="rgb(5.989075%, 55.648804%, 47.885132%)" stop-opacity="1"/>
<stop offset="0.839844" stop-color="rgb(5.844116%, 55.526733%, 47.686768%)" stop-opacity="1"/>
<stop offset="0.84375" stop-color="rgb(5.699158%, 55.406189%, 47.489929%)" stop-opacity="1"/>
<stop offset="0.847656" stop-color="rgb(5.554199%, 55.284119%, 47.291565%)" stop-opacity="1"/>
<stop offset="0.851562" stop-color="rgb(5.410767%, 55.163574%, 47.093201%)" stop-opacity="1"/>
<stop offset="0.855469" stop-color="rgb(5.265808%, 55.041504%, 46.894836%)" stop-opacity="1"/>
<stop offset="0.859375" stop-color="rgb(5.12085%, 54.920959%, 46.697998%)" stop-opacity="1"/>
<stop offset="0.875" stop-color="rgb(5.108643%, 54.910278%, 46.681213%)" stop-opacity="1"/>
<stop offset="1" stop-color="rgb(5.097961%, 54.901123%, 46.665955%)" stop-opacity="1"/>
</linearGradient>
</defs>
<g clip-path="url(#clip-0)">
<g clip-path="url(#clip-1)">
<path fill-rule="nonzero" fill="url(#linear-pattern-0)" d="M 1936.507812 -1936.5 L -1936.449219 1936.441406 L 1936.492188 5809.398438 L 5809.449219 1936.457031 Z M 1936.507812 -1936.5 "/>
</g>
</g>
<path fill-rule="evenodd" fill="rgb(100%, 100%, 99.609375%)" fill-opacity="1" d="M 2131.898438 1525.398438 C 2136.800781 1525.898438 2141.699219 1526.5 2146.601562 1527.101562 C 2174.398438 1530.5 2202.398438 1534.601562 2230.300781 1539.800781 C 2255.300781 1497.601562 2288.5 1433 2288.398438 1390 C 2288.398438 1385.898438 2287.800781 1376.5 2284.601562 1373.300781 C 2284.398438 1373.101562 2284.300781 1373 2284.101562 1372.800781 C 2278.300781 1367 2253.398438 1370.699219 2246.5 1372 C 2212.800781 1378.699219 2176.5 1395.699219 2146.398438 1411.898438 C 2136.699219 1417.101562 2127.101562 1422.601562 2117.699219 1428.199219 C 2122.800781 1455.898438 2127 1483.699219 2130.300781 1511.398438 C 2130.898438 1516.101562 2131.398438 1520.699219 2131.898438 1525.398438 Z M 1936.601562 1998.800781 C 1932.199219 2002.300781 1927.699219 2005.898438 1923.199219 2009.398438 C 1901.898438 2026 1880 2042.199219 1857.5 2057.699219 C 1860.199219 2068.398438 1863.101562 2079.101562 1866.300781 2089.601562 C 1876.101562 2122.300781 1889.800781 2160 1909 2188.601562 C 1913.101562 2194.601562 1928 2214.601562 1936.5 2214.601562 C 1945 2214.601562 1960 2194.601562 1964 2188.601562 C 1983.199219 2160.101562 1996.898438 2122.398438 2006.699219 2089.601562 C 2009.898438 2079 2012.800781 2068.300781 2015.5 2057.601562 C 1993 2042.199219 1971.101562 2026 1949.800781 2009.398438 C 1945.398438 2005.800781 1941 2002.300781 1936.601562 1998.800781 Z M 2007.398438 1939 C 2016.5 1946 2025.601562 1953 2034.898438 1959.898438 C 2036.601562 1948.601562 2038.199219 1937.300781 2039.601562 1926 C 2033.300781 1926.398438 2027 1926.699219 2020.699219 1927 C 2016.300781 1931 2011.898438 1935 2007.398438 1939 Z M 2007 1504.601562 C 2011.5 1508.601562 2016 1512.601562 2020.398438 1516.699219 C 2026.800781 1517 2033.199219 1517.300781 2039.601562 1517.699219 C 2038.199219 1506.300781 2036.601562 1494.898438 2034.898438 1483.5 C 2025.5 1490.398438 2016.199219 1497.5 2007 1504.601562 Z M 1865.699219 1938.898438 C 1861.300781 1935 1856.898438 1931 1852.601562 1927.101562 C 1846.199219 1926.800781 1839.800781 1926.5 1833.398438 1926.101562 C 1834.800781 1937.300781 1836.398438 1948.601562 1838.101562 1959.800781 C 1847.398438 1952.898438 1856.601562 1945.898438 1865.699219 1938.898438 Z M 1889.699219 1837.601562 C 1905.300781 1838 1920.898438 1838.199219 1936.5 1838.199219 C 1952.101562 1838.199219 1967.699219 1838 1983.398438 1837.601562 C 1995 1826.601562 2006.5 1815.5 2017.699219 1804.300781 C 2028.898438 1793.101562 2040.101562 1781.699219 2051.199219 1770.101562 C 2051.601562 1753.699219 2051.800781 1737.398438 2051.800781 1721 C 2051.800781 1705.199219 2051.601562 1689.300781 2051.199219 1673.398438 C 2040.300781 1662 2029.300781 1650.800781 2018.300781 1639.800781 C 2006.898438 1628.5 1995.398438 1617.300781 1983.699219 1606.199219 C 1968 1605.800781 1952.199219 1605.601562 1936.5 1605.601562 C 1920.699219 1605.601562 1904.898438 1605.800781 1889.199219 1606.199219 C 1877.601562 1617.199219 1866.199219 1628.300781 1855 1639.5 C 1843.800781 1650.699219 1832.800781 1662 1821.800781 1673.5 C 1821.398438 1689.300781 1821.199219 1705.101562 1821.199219 1720.898438 C 1821.199219 1737.199219 1821.398438 1753.601562 1821.800781 1770 C 1832.898438 1781.601562 1844.101562 1793 1855.300781 1804.199219 C 1866.601562 1815.398438 1878 1826.601562 1889.699219 1837.601562 Z M 1936.101562 1445 C 1940.601562 1441.398438 1945.101562 1437.898438 1949.601562 1434.398438 C 1971 1417.800781 1993 1401.5 2015.5 1386.101562 C 2012.800781 1375.300781 2009.800781 1364.601562 2006.699219 1354.101562 C 1996.898438 1321.398438 1983.199219 1283.800781 1964 1255.300781 C 1959.898438 1249.300781 1944.898438 1229.300781 1936.5 1229.300781 C 1928.101562 1229.300781 1913 1249.300781 1909 1255.300781 C 1889.800781 1283.800781 1876.101562 1321.398438 1866.300781 1354.101562 C 1863.101562 1364.800781 1860.101562 1375.699219 1857.398438 1386.601562 C 1876.5 1399.800781 1895.199219 1413.398438 1913.398438 1427.398438 C 1921 1433.101562 1928.601562 1439 1936.101562 1445 Z M 1865.5 1504.699219 C 1863.5 1503.101562 1861.5 1501.601562 1859.5 1500.101562 C 1852.398438 1494.699219 1845.300781 1489.300781 1838 1483.898438 C 1836.300781 1495.199219 1834.699219 1506.398438 1833.300781 1517.699219 C 1839.601562 1517.300781 1845.898438 1517 1852.199219 1516.699219 C 1856.601562 1512.699219 1861 1508.699219 1865.5 1504.699219 Z M 2140.699219 1636.101562 C 2145.199219 1641 2149.699219 1645.898438 2154.101562 1650.898438 C 2161.300781 1641.5 2168.398438 1632.101562 2175.398438 1622.601562 C 2163.5 1620.800781 2151.601562 1619.101562 2139.699219 1617.699219 C 2140.101562 1623.800781 2140.398438 1630 2140.699219 1636.101562 Z M 1719 1651.199219 C 1723.398438 1646.300781 1727.800781 1641.398438 1732.300781 1636.5 C 1732.601562 1630.199219 1732.898438 1624 1733.300781 1617.699219 C 1721.398438 1619.199219 1709.398438 1620.800781 1697.5 1622.699219 C 1704.5 1632.199219 1711.699219 1641.699219 1719 1651.199219 Z M 1659 1722 C 1638.199219 1696 1618.398438 1669.300781 1599.800781 1642.101562 C 1589.300781 1644.800781 1579 1647.601562 1568.699219 1650.699219 C 1535.800781 1660.5 1497.898438 1674.300781 1469.101562 1693.5 C 1463.101562 1697.5 1442.898438 1712.5 1442.898438 1721 C 1442.898438 1729.800781 1460.800781 1744 1467 1748.398438 C 1495.699219 1768.601562 1535.398438 1783 1568.699219 1793 C 1579 1796.101562 1589.398438 1799 1599.898438 1801.699219 C 1615.199219 1779.398438 1631.300781 1757.601562 1647.800781 1736.398438 C 1651.5 1731.5 1655.199219 1726.800781 1659 1722 Z M 1732.300781 1807.398438 C 1727.699219 1802.398438 1723.199219 1797.398438 1718.601562 1792.398438 C 1711.300781 1801.800781 1704 1811.300781 1696.898438 1821 C 1709 1822.898438 1721.199219 1824.5 1733.300781 1826.101562 C 1732.898438 1819.800781 1732.601562 1813.601562 1732.300781 1807.398438 Z M 2230.398438 1902.898438 C 2208.800781 1907 2187.101562 1910.5 2165.699219 1913.5 C 2154.5 1915.101562 2143.199219 1916.5 2132 1917.800781 C 2131.398438 1923.199219 2130.800781 1928.601562 2130.101562 1933.898438 C 2126.800781 1960.898438 2122.699219 1988.101562 2117.699219 2015.101562 C 2127.398438 2020.898438 2137.199219 2026.5 2147.101562 2031.800781 C 2177.199219 2048 2213.601562 2065 2247.300781 2071.699219 C 2254.199219 2073.101562 2279 2076.699219 2284.898438 2070.898438 C 2285.101562 2070.699219 2285.199219 2070.601562 2285.398438 2070.398438 C 2288.601562 2067.199219 2289.199219 2057.699219 2289.199219 2053.601562 C 2289.398438 2010.5 2255.398438 1945 2230.398438 1902.898438 Z M 2154.398438 1792.398438 C 2149.898438 1797.5 2145.300781 1802.5 2140.699219 1807.5 C 2140.398438 1813.5 2140.101562 1819.398438 2139.800781 1825.398438 C 2143.699219 1824.898438 2147.601562 1824.398438 2151.5 1823.800781 C 2159.5 1822.699219 2167.5 1821.5 2175.5 1820.300781 C 2168.601562 1811 2161.5 1801.699219 2154.398438 1792.398438 Z M 1549.800781 1561.398438 C 1520.300781 1507.699219 1493.300781 1443.898438 1493.601562 1389.5 C 1493.800781 1359.300781 1502.601562 1331.398438 1523.699219 1309.398438 C 1556 1275.699219 1603.800781 1274.601562 1646.699219 1283.101562 C 1671.199219 1288 1687.300781 1311.898438 1682.398438 1336.398438 C 1677.601562 1360.898438 1653.601562 1377 1629 1372.101562 C 1621.601562 1370.601562 1597.199219 1367.101562 1589.898438 1371.5 C 1589.398438 1372.101562 1588.898438 1372.699219 1588.199219 1373.300781 C 1585 1376.5 1584.398438 1386 1584.398438 1390.101562 C 1584 1432.898438 1617.398438 1497.699219 1642.300781 1539.800781 C 1670.199219 1534.601562 1698.300781 1530.5 1726.199219 1527.101562 C 1731.101562 1526.5 1736 1525.898438 1740.898438 1525.398438 C 1741.398438 1520.800781 1742 1516.101562 1742.5 1511.5 C 1745.898438 1483.898438 1750 1456 1755.101562 1428.300781 C 1739.601562 1419 1723.898438 1410.199219 1708 1402.101562 C 1685.699219 1390.800781 1676.699219 1363.300781 1688.101562 1341.101562 C 1699.5 1318.898438 1726.898438 1309.898438 1749.101562 1321.300781 C 1758.300781 1326 1767.5 1331 1776.601562 1336.101562 C 1777.5 1333.101562 1778.300781 1330.199219 1779.199219 1327.199219 C 1800.300781 1257.101562 1847 1138.5 1936.199219 1138.5 C 2025.398438 1138.5 2072.101562 1257.101562 2093.199219 1327.199219 C 2094.101562 1330.199219 2095 1333.101562 2095.800781 1336.101562 C 2098.199219 1334.699219 2100.699219 1333.398438 2103.199219 1332.101562 C 2167.601562 1297.300781 2284.398438 1245.800781 2348.101562 1308.5 C 2370.199219 1330.199219 2378.898438 1359 2379.101562 1389.5 C 2379.398438 1444 2352.398438 1507.800781 2322.898438 1561.398438 C 2325.699219 1562.199219 2328.5 1563 2331.300781 1563.898438 C 2401.398438 1584.898438 2520.601562 1631.601562 2520.601562 1720.898438 C 2520.601562 1764.699219 2491.898438 1799.800781 2456.898438 1823 C 2436.101562 1836.800781 2407.898438 1831.300781 2394 1810.5 C 2380.101562 1789.699219 2385.699219 1761.398438 2406.5 1747.5 C 2413.101562 1743.101562 2429.800781 1730.101562 2429.800781 1720.898438 C 2429.800781 1712.398438 2409.699219 1697.5 2403.601562 1693.398438 C 2374.898438 1674.199219 2336.898438 1660.398438 2304 1650.601562 C 2293.699219 1647.5 2283.398438 1644.699219 2272.898438 1642 C 2254.398438 1669.101562 2234.601562 1695.699219 2213.898438 1721.699219 C 2234.398438 1747.398438 2254 1773.699219 2272.398438 1800.5 C 2291.300781 1795.601562 2309.800781 1790.101562 2328 1783.898438 C 2351.800781 1775.699219 2377.601562 1788.199219 2385.800781 1812 C 2394 1835.800781 2381.5 1861.601562 2357.699219 1869.800781 C 2346.101562 1873.800781 2334.300781 1877.5 2322.398438 1881 C 2352.199219 1934.898438 2379.601562 1999.300781 2379.300781 2054.199219 C 2379.101562 2084.699219 2370.398438 2113.5 2348.300781 2135.199219 C 2326.601562 2156.5 2298.398438 2164.699219 2268.5 2164.699219 C 2213.398438 2164.699219 2151.101562 2137.398438 2103.398438 2111.601562 C 2100.898438 2110.199219 2098.300781 2108.800781 2095.800781 2107.398438 C 2095 2110 2094.300781 2112.601562 2093.5 2115.199219 C 2072.5 2185.601562 2026.101562 2305.101562 1936.199219 2305.101562 C 1846.300781 2305.101562 1799.898438 2185.601562 1778.898438 2115.199219 C 1778.101562 2112.601562 1777.398438 2110 1776.601562 2107.5 C 1774.101562 2108.898438 1771.601562 2110.199219 1769.199219 2111.601562 C 1721.5 2137.300781 1659.101562 2164.699219 1603.898438 2164.699219 C 1574 2164.699219 1545.5 2156.5 1524 2134.898438 C 1484.5 2095.398438 1489 2038.199219 1502.898438 1988.5 C 1509.699219 1964.5 1534.800781 1950.300781 1558.800781 1957 C 1582.800781 1963.800781 1597 1988.800781 1590.199219 2012.898438 C 1587 2024.300781 1578 2060.601562 1588.101562 2070.800781 C 1593.898438 2076.601562 1618.800781 2072.898438 1625.699219 2071.601562 C 1659.398438 2064.898438 1695.800781 2047.898438 1725.898438 2031.699219 C 1735.699219 2026.398438 1745.398438 2020.898438 1755.101562 2015.101562 C 1750.101562 1988.101562 1746 1960.898438 1742.699219 1933.898438 C 1742.101562 1928.699219 1741.398438 1923.5 1740.800781 1918.199219 C 1735.101562 1917.5 1729.300781 1916.898438 1723.601562 1916.199219 C 1696.300781 1912.800781 1668.898438 1908.601562 1641.601562 1903.5 C 1636.199219 1912.601562 1631.101562 1921.898438 1626.199219 1931.199219 C 1614.5 1953.398438 1587 1961.699219 1564.898438 1950 C 1542.800781 1938.199219 1534.300781 1910.800781 1546.199219 1888.699219 C 1547.398438 1886.398438 1548.601562 1884.199219 1549.898438 1881.898438 C 1547.398438 1881.199219 1544.898438 1880.398438 1542.398438 1879.699219 C 1471.5 1858.398438 1352 1811.398438 1352 1720.898438 C 1352 1631.601562 1471.199219 1584.898438 1541.300781 1563.898438 C 1544.199219 1563.101562 1547 1562.199219 1549.800781 1561.398438 "/>
<path fill-rule="evenodd" fill="rgb(100%, 100%, 99.609375%)" fill-opacity="1" d="M 1683.101562 1422.101562 C 1640 1422.101562 1603.699219 1385.800781 1603.699219 1342.699219 C 1603.699219 1298.800781 1639.300781 1263.300781 1683.101562 1263.300781 C 1728.300781 1263.300781 1762.5 1297.5 1762.5 1342.699219 C 1762.5 1386.601562 1727 1422.101562 1683.101562 1422.101562 "/>
<path fill-rule="evenodd" fill="rgb(100%, 100%, 99.609375%)" fill-opacity="1" d="M 2388.5 1889.199219 C 2345.398438 1889.199219 2309.101562 1852.898438 2309.101562 1809.800781 C 2309.101562 1765.898438 2344.699219 1730.398438 2388.5 1730.398438 C 2433.699219 1730.398438 2467.898438 1764.601562 2467.898438 1809.800781 C 2467.898438 1853.699219 2432.300781 1889.199219 2388.5 1889.199219 "/>
<path fill-rule="evenodd" fill="rgb(100%, 100%, 99.609375%)" fill-opacity="1" d="M 1563.898438 2034.800781 C 1520.800781 2034.800781 1484.5 1998.5 1484.5 1955.398438 C 1484.5 1911.5 1520.101562 1876 1563.898438 1876 C 1609.101562 1876 1643.300781 1910.199219 1643.300781 1955.398438 C 1643.398438 1999.300781 1607.800781 2034.800781 1563.898438 2034.800781 "/>
<path fill-rule="evenodd" fill="rgb(100%, 100%, 99.609375%)" fill-opacity="1" d="M 3124.101562 1102.5 L 748.898438 1102.5 C 710.398438 1102.5 674.199219 1088.5 646.800781 1063 C 619.601562 1037.800781 604.800781 1004.898438 604.800781 970.101562 C 604.800781 934.5 619.800781 901.300781 646.800781 876.300781 C 674 851.300781 710.199219 837.699219 748.898438 837.699219 L 3124 837.699219 C 3162.699219 837.699219 3198.898438 851.5 3226.101562 876.300781 C 3253.300781 901.300781 3268.101562 934.5 3268.101562 970.101562 C 3268.101562 1004.898438 3253.300781 1037.800781 3226.101562 1063 C 3198.800781 1088.5 3162.5 1102.5 3124.101562 1102.5 "/>
<path fill-rule="evenodd" fill="rgb(100%, 100%, 99.609375%)" fill-opacity="1" d="M 2522.699219 2492.5 L 1350.300781 2492.5 C 1073.601562 2492.5 830.199219 2279.601562 830.199219 1997 L 830.199219 1102.5 L 1011.699219 1102.5 L 1011.699219 1997 C 1011.699219 2179.199219 1174.101562 2310.898438 1350.199219 2310.898438 L 2522.699219 2310.898438 C 2698.800781 2310.898438 2861.199219 2179.199219 2861.199219 1997 L 2861.199219 1102.5 L 3042.699219 1102.5 L 3042.699219 1997 C 3042.800781 2279.601562 2799.398438 2492.5 2522.699219 2492.5 "/>
<path fill-rule="evenodd" fill="rgb(100%, 100%, 99.609375%)" fill-opacity="1" d="M 2377.101562 2581.398438 L 1495.800781 2581.398438 C 1479.199219 2581.398438 1465.5 2567.800781 1465.5 2551.101562 L 1465.5 2492.5 L 2407.300781 2492.5 L 2407.300781 2551.101562 C 2407.398438 2567.699219 2393.800781 2581.398438 2377.101562 2581.398438 "/>
<path fill-rule="evenodd" fill="rgb(100%, 100%, 99.609375%)" fill-opacity="1" d="M 1321.898438 3404 L 1121.398438 3404 C 1110.601562 3404 1100.800781 3398.300781 1095.300781 3389.101562 C 1089.800781 3379.800781 1089.800781 3368.5 1094.898438 3359 L 1527.5 2581.398438 L 1797.300781 2581.398438 L 1348.300781 3388.5 C 1343.101562 3398.101562 1332.898438 3404 1321.898438 3404 "/>
<path fill-rule="evenodd" fill="rgb(100%, 100%, 99.609375%)" fill-opacity="1" d="M 2751.601562 3404 L 2551.101562 3404 C 2540.101562 3404 2529.898438 3398.101562 2524.601562 3388.5 L 2075.601562 2581.398438 L 2345.398438 2581.398438 L 2778 3359 C 2783.300781 3368.5 2783.101562 3379.800781 2777.601562 3389.101562 C 2772.101562 3398.398438 2762.300781 3404 2751.601562 3404 "/>
<path fill-rule="evenodd" fill="rgb(100%, 100%, 99.609375%)" fill-opacity="1" d="M 1684.800781 2783.699219 L 2188.199219 2783.699219 L 2298.601562 2982.300781 L 1574.300781 2982.300781 L 1684.800781 2783.699219 "/>
<path fill-rule="evenodd" fill="rgb(100%, 100%, 99.609375%)" fill-opacity="1" d="M 1876 837.800781 L 1876 529.5 C 1876 496.199219 1903.199219 469 1936.5 469 C 1969.800781 469 1997 496.199219 1997 529.5 L 1997 837.800781 L 1876 837.800781 "/>
</svg>
